<?xml version="1.0" encoding="UTF-8" standalone="no"?>
<!-- Created with Inkscape (http://www.inkscape.org/) -->

<svg
   xmlns:dc="http://purl.org/dc/elements/1.1/"
   xmlns:cc="http://creativecommons.org/ns#"
   xmlns:rdf="http://www.w3.org/1999/02/22-rdf-syntax-ns#"
   xmlns:svg="http://www.w3.org/2000/svg"
   xmlns="http://www.w3.org/2000/svg"
   xmlns:sodipodi="http://sodipodi.sourceforge.net/DTD/sodipodi-0.dtd"
   xmlns:inkscape="http://www.inkscape.org/namespaces/inkscape"
   id="svg3004"
   version="1.1"
   inkscape:version="0.48.3.1 r9886"
   width="630"
   height="450"
   xml:space="preserve"
   sodipodi:docname="sensitivity_histogram.pdf"><metadata
     id="metadata3010"><rdf:RDF><cc:Work
         rdf:about=""><dc:format>image/svg+xml</dc:format><dc:type
           rdf:resource="http://purl.org/dc/dcmitype/StillImage" /><dc:title></dc:title></cc:Work></rdf:RDF></metadata><defs
     id="defs3008"><marker
       inkscape:stockid="Arrow2Mend"
       orient="auto"
       refY="0.0"
       refX="0.0"
       id="Arrow2Mend"
       style="overflow:visible;"><path
         id="path4029"
         style="fill-rule:evenodd;stroke-width:0.62500000;stroke-linejoin:round;"
         d="M 8.7185878,4.0337352 L -2.2072895,0.016013256 L 8.7185884,-4.0017078 C 6.9730900,-1.6296469 6.9831476,1.6157441 8.7185878,4.0337352 z "
         transform="scale(0.6) rotate(180) translate(0,0)" /></marker><marker
       inkscape:stockid="Arrow2Lend"
       orient="auto"
       refY="0.0"
       refX="0.0"
       id="Arrow2Lend"
       style="overflow:visible;"><path
         id="path4023"
         style="fill-rule:evenodd;stroke-width:0.62500000;stroke-linejoin:round;"
         d="M 8.7185878,4.0337352 L -2.2072895,0.016013256 L 8.7185884,-4.0017078 C 6.9730900,-1.6296469 6.9831476,1.6157441 8.7185878,4.0337352 z "
         transform="scale(1.1) rotate(180) translate(1,0)" /></marker><clipPath
       clipPathUnits="userSpaceOnUse"
       id="clipPath3044"><path
         d="m 90.94,58.82 398.66,0 0,286.78 -398.66,0 0,-286.78 z"
         id="path3046" /></clipPath><clipPath
       clipPathUnits="userSpaceOnUse"
       id="clipPath3114"><path
         d="m 90.94,58.82 398.66,0 0,286.78 -398.66,0 0,-286.78 z"
         id="path3116" /></clipPath></defs><sodipodi:namedview
     pagecolor="#ffffff"
     bordercolor="#666666"
     borderopacity="1"
     objecttolerance="10"
     gridtolerance="10"
     guidetolerance="10"
     inkscape:pageopacity="0"
     inkscape:pageshadow="2"
     inkscape:window-width="1680"
     inkscape:window-height="1024"
     id="namedview3006"
     showgrid="false"
     inkscape:zoom="1.1103093"
     inkscape:cx="217.77282"
     inkscape:cy="253.40074"
     inkscape:window-x="7"
     inkscape:window-y="24"
     inkscape:window-maximized="0"
     inkscape:current-layer="g3012" /><g
     id="g3012"
     inkscape:groupmode="layer"
     inkscape:label="sensitivity_histogram"
     transform="matrix(1.25,0,0,-1.25,0,450)"><g
       id="g3014" /><g
       id="g3016" /><g
       id="g3018" /><g
       id="g3020" /><g
       id="g3022" /><g
       id="g3024" /><g
       id="g3026" /><g
       id="g3028" /><g
       id="g3030" /><g
       id="g3032" /><g
       id="g3034" /><g
       id="g3036" /><g
       id="g3038" /><g
       id="g3040"><g
         id="g3042"
         clip-path="url(#clipPath3044)" /></g><g
       id="g3048" /><g
       id="g3050" /><g
       id="g3052" /><g
       id="g3054" /><g
       id="g3056" /><g
       id="g3058" /><g
       id="g3060" /><g
       id="g3062" /><g
       id="g3064" /><g
       id="g3066" /><g
       id="g3068" /><g
       id="g3070"><path
         d="m 90.94,58.82 0,286.78"
         style="fill:none;stroke:#000000;stroke-opacity:1;stroke-width:2.13;stroke-linecap:round;stroke-linejoin:round;stroke-miterlimit:10;stroke-dasharray:none"
         id="path3072" /><text
         transform="matrix(1,0,0,-1,37.4,65.4)"
         id="text3074"><tspan
           style="fill:#000000;fill-opacity:1;fill-rule:nonzero;stroke:none;font-family:Helvetica;font-variant:normal;font-weight:normal;font-size:18;writing-mode:lr;-inkscape-font-specification:Helvetica"
           x="0 10.008 15.012 25.02 35.028"
           y="0"
           sodipodi:role="line"
           id="tspan3076">0.000</tspan></text>
<text
         transform="matrix(1,0,0,-1,37.4,146.34)"
         id="text3078"><tspan
           style="fill:#000000;fill-opacity:1;fill-rule:nonzero;stroke:none;font-family:Helvetica;font-variant:normal;font-weight:normal;font-size:18;writing-mode:lr;-inkscape-font-specification:Helvetica"
           x="0 10.008 15.012 25.02 35.028"
           y="0"
           sodipodi:role="line"
           id="tspan3080">0.001</tspan></text>
<text
         transform="matrix(1,0,0,-1,37.4,227.29)"
         id="text3082"><tspan
           style="fill:#000000;fill-opacity:1;fill-rule:nonzero;stroke:none;font-family:Helvetica;font-variant:normal;font-weight:normal;font-size:18;writing-mode:lr;-inkscape-font-specification:Helvetica"
           x="0 10.008 15.012 25.02 35.028"
           y="0"
           sodipodi:role="line"
           id="tspan3084">0.002</tspan></text>
<text
         transform="matrix(1,0,0,-1,37.4,308.24)"
         id="text3086"><tspan
           style="fill:#000000;fill-opacity:1;fill-rule:nonzero;stroke:none;font-family:Helvetica;font-variant:normal;font-weight:normal;font-size:18;writing-mode:lr;-inkscape-font-specification:Helvetica"
           x="0 10.008 15.012 25.02 35.028"
           y="0"
           sodipodi:role="line"
           id="tspan3088">0.003</tspan></text>
</g><g
       id="g3090"><path
         d="m 86.68,71.86 4.26,0"
         style="fill:none;stroke:#000000;stroke-opacity:1;stroke-width:2.13;stroke-linecap:round;stroke-linejoin:round;stroke-miterlimit:10;stroke-dasharray:none"
         id="path3092" /><path
         d="m 86.68,152.81 4.26,0"
         style="fill:none;stroke:#000000;stroke-opacity:1;stroke-width:2.13;stroke-linecap:round;stroke-linejoin:round;stroke-miterlimit:10;stroke-dasharray:none"
         id="path3094" /><path
         d="m 86.68,233.75 4.26,0"
         style="fill:none;stroke:#000000;stroke-opacity:1;stroke-width:2.13;stroke-linecap:round;stroke-linejoin:round;stroke-miterlimit:10;stroke-dasharray:none"
         id="path3096" /><path
         d="m 86.68,314.7 4.26,0"
         style="fill:none;stroke:#000000;stroke-opacity:1;stroke-width:2.13;stroke-linecap:round;stroke-linejoin:round;stroke-miterlimit:10;stroke-dasharray:none"
         id="path3098" /></g><g
       id="g3100" /><g
       id="g3102" /><g
       id="g3104" /><g
       id="g3106" /><g
       id="g3108" /><g
       id="g3110"><g
         id="g3112"
         clip-path="url(#clipPath3114)"><path
           d="m 109.06,71.88 0.71,0 0.71,0 0.7,0.01 0.71,0 0.71,0.01 0.71,0.01 0.71,0 0.71,0.01 0.71,0.01 0.71,0.02 0.71,0.01 0.71,0.02 0.71,0.01 0.71,0.02 0.71,0.03 0.7,0.02 0.71,0.04 0.71,0.03 0.71,0.04 0.71,0.04 0.71,0.05 0.71,0.05 0.71,0.06 0.71,0.07 0.71,0.07 0.71,0.08 0.71,0.09 0.71,0.1 0.71,0.11 0.7,0.12 0.71,0.13 0.71,0.15 0.71,0.15 0.71,0.17 0.71,0.18 0.71,0.2 0.71,0.22 0.71,0.23 0.71,0.25 0.71,0.27 0.71,0.29 0.71,0.3 0.7,0.33 0.71,0.35 0.71,0.37 0.71,0.39 0.71,0.41 0.71,0.44 0.71,0.46 0.71,0.48 0.71,0.5 0.71,0.53 0.71,0.56 0.71,0.57 0.71,0.6 0.7,0.62 0.71,0.65 0.71,0.66 0.71,0.69 0.71,0.72 0.71,0.73 0.71,0.75 0.71,0.76 0.71,0.79 0.71,0.81 0.71,0.82 0.71,0.83 0.71,0.85 0.7,0.86 0.71,0.87 0.71,0.89 0.71,0.89 0.71,0.9 0.71,0.9 0.71,0.91 0.71,0.91 0.71,0.92 0.71,0.91 0.71,0.91 0.71,0.91 0.71,0.91 0.7,0.9 0.71,0.89 0.71,0.89 0.71,0.87 0.71,0.87 0.71,0.85 0.71,0.84 0.71,0.82 0.71,0.81 0.71,0.79 0.71,0.76 0.71,0.75 0.71,0.73 0.7,0.72 0.71,0.68 0.71,0.66 0.71,0.64 0.71,0.62 0.71,0.58 0.71,0.57 0.71,0.54 0.71,0.52 0.71,0.48 0.71,0.46 0.71,0.44 0.71,0.42 0.71,0.39 0.7,0.37 0.71,0.35 0.71,0.33 0.71,0.3 0.71,0.29 0.71,0.28 0.71,0.26 0.71,0.25 0.71,0.24 0.71,0.23 0.71,0.23 0.71,0.22 0.71,0.23 0.7,0.22 0.71,0.23 0.71,0.24 0.71,0.26 0.71,0.26 0.71,0.29 0.71,0.31 0.71,0.33 0.71,0.36 0.71,0.39 0.71,0.43 0.71,0.47 0.71,0.51 0.7,0.55 0.71,0.62 0.71,0.66 0.71,0.72 0.71,0.76 0.71,0.85 0.71,0.92 0.71,0.97 0.71,1.04 0.71,1.13 0.71,1.21 0.71,1.28 0.71,1.35 0.7,1.45 0.71,1.54 0.71,1.61 0.71,1.68 0.71,1.8 0.71,1.88 0.71,1.95 0.71,2.02 0.71,2.13 0.71,2.21 0.71,2.27 0.71,2.34 0.71,2.43 0.7,2.49 0.71,2.55 0.71,2.6 0.71,2.67 0.71,2.71 0.71,2.75 0.71,2.77 0.71,2.82 0.71,2.83 0.71,2.84 0.71,2.85 0.71,2.85 0.71,2.84 0.7,2.82 0.71,2.81 0.71,2.77 0.71,2.73 0.71,2.69 0.71,2.65 0.71,2.58 0.71,2.51 0.71,2.46 0.71,2.4 0.71,2.3 0.71,2.23 0.71,2.15 0.7,2.08 0.71,1.98 0.71,1.89 0.71,1.82 0.71,1.75 0.71,1.64 0.71,1.56 0.71,1.5 0.71,1.43 0.71,1.35 0.71,1.28 0.71,1.23 0.71,1.18 0.71,1.11 0.7,1.08 0.71,1.04 0.71,1.02 0.71,0.98 0.71,0.96 0.71,0.96 0.71,0.94 0.71,0.94 0.71,0.95 0.71,0.95 0.71,0.96 0.71,0.98 0.71,1 0.7,1.02 0.71,1.03 0.71,1.07 0.71,1.08 0.71,1.11 0.71,1.13 0.71,1.15 0.71,1.17 0.71,1.18 0.71,1.19 0.71,1.2 0.71,1.2 0.71,1.19 0.7,1.19 0.71,1.17 0.71,1.14 0.71,1.11 0.71,1.08 0.71,1.03 0.71,0.98 0.71,0.91 0.71,0.86 0.71,0.78 0.71,0.68 0.71,0.6 0.71,0.52 0.7,0.4 0.71,0.28 0.71,0.18 0.71,0.07 0.71,-0.07 0.71,-0.21 0.71,-0.33 0.71,-0.46 0.71,-0.61 0.71,-0.76 0.71,-0.9 0.71,-1.03 0.71,-1.19 0.7,-1.35 0.71,-1.49 0.71,-1.62 0.71,-1.77 0.71,-1.94 0.71,-2.06 0.71,-2.19 0.71,-2.34 0.71,-2.48 0.71,-2.6 0.71,-2.71 0.71,-2.85 0.71,-2.97 0.7,-3.07 0.71,-3.16 0.71,-3.27 0.71,-3.37 0.71,-3.44 0.71,-3.51 0.71,-3.6 0.71,-3.66 0.71,-3.71 0.71,-3.75 0.71,-3.8 0.71,-3.83 0.71,-3.85 0.71,-3.86 0.7,-3.88 0.71,-3.87 0.71,-3.86 0.71,-3.84 0.71,-3.82 0.71,-3.78 0.71,-3.75 0.71,-3.7 0.71,-3.64 0.71,-3.57 0.71,-3.52 0.71,-3.45 0.71,-3.37 0.7,-3.27 0.71,-3.2 0.71,-3.11 0.71,-3.03 0.71,-2.91 0.71,-2.83 0.71,-2.74 0.71,-2.64 0.71,-2.53 0.71,-2.45 0.71,-2.36 0.71,-2.26 0.71,-2.15 0.7,-2.07 0.71,-2 0.71,-1.91 0.71,-1.81 0.71,-1.74 0.71,-1.68 0.71,-1.6 0.71,-1.53 0.71,-1.46 0.71,-1.41 0.71,-1.35 0.71,-1.28 0.71,-1.24 0.7,-1.19 0.71,-1.15 0.71,-1.09 0.71,-1.05 0.71,-1.01 0.71,-0.98 0.71,-0.93 0.71,-0.89 0.71,-0.87 0.71,-0.82 0.71,-0.79 0.71,-0.76 0.71,-0.73 0.7,-0.69 0.71,-0.66 0.71,-0.63 0.71,-0.6 0.71,-0.57 0.71,-0.53 0.71,-0.51 0.71,-0.48 0.71,-0.46 0.71,-0.42 0.71,-0.4 0.71,-0.37 0.71,-0.36 0.7,-0.32 0.71,-0.31 0.71,-0.29 0.71,-0.28 0.71,-0.25 0.71,-0.24 0.71,-0.24 0.71,-0.22 0.71,-0.21 0.71,-0.21 0.71,-0.2 0.71,-0.2 0.71,-0.2 0.71,-0.19 0.7,-0.2 0.71,-0.2 0.71,-0.21 0.71,-0.21 0.71,-0.21 0.71,-0.22 0.71,-0.22 0.71,-0.23 0.71,-0.24 0.71,-0.24 0.71,-0.24 0.71,-0.25 0.71,-0.25 0.7,-0.25 0.71,-0.26 0.71,-0.25 0.71,-0.25 0.71,-0.25 0.71,-0.24 0.71,-0.23 0.71,-0.23 0.71,-0.21 0.71,-0.21 0.71,-0.19 0.71,-0.18 0.71,-0.16 0.7,-0.14 0.71,-0.13 0.71,-0.11 0.71,-0.09 0.71,-0.06 0.71,-0.05 0.71,-0.03 0.71,-0.01 0.71,0.02 0.71,0.04 0.71,0.06 0.71,0.07 0.71,0.1 0.7,0.11 0.71,0.13 0.71,0.14 0.71,0.15 0.71,0.17 0.71,0.17 0.71,0.19 0.71,0.19 0.71,0.19 0.71,0.19 0.71,0.19 0.71,0.19 0.71,0.19 0.7,0.17 0.71,0.17 0.71,0.15 0.71,0.15 0.71,0.12 0.71,0.12 0.71,0.09 0.71,0.07 0.71,0.05 0.71,0.04 0.71,0 0.71,-0.02 0.71,-0.03 0.7,-0.06 0.71,-0.09 0.71,-0.11 0.71,-0.13 0.71,-0.15 0.71,-0.18 0.71,-0.2 0.71,-0.22 0.71,-0.23 0.71,-0.26 0.71,-0.27 0.71,-0.28 0.71,-0.3 0.71,-0.31 0.7,-0.31 0.71,-0.33 0.71,-0.33 0.71,-0.34 0.71,-0.34 0.71,-0.34 0.71,-0.35 0.71,-0.34 0.71,-0.34 0.71,-0.33 0.71,-0.33 0.71,-0.32 0.71,-0.32 0.7,-0.31 0.71,-0.3 0.71,-0.28 0.71,-0.28 0.71,-0.27 0.71,-0.26 0.71,-0.24 0.71,-0.23 0.71,-0.22 0.71,-0.21 0.71,-0.2 0.71,-0.18 0.71,-0.18 0.7,-0.16 0.71,-0.15 0.71,-0.14 0.71,-0.14 0.71,-0.12 0.71,-0.11 0.71,-0.1 0.71,-0.1 0.71,-0.08 0.71,-0.08 0.71,-0.07 0.71,-0.07 0.71,-0.06 0.7,-0.05 0.71,-0.05 0.71,-0.04 0.71,-0.04 0.71,-0.04 0.71,-0.03 0.71,-0.03 0.71,-0.02 0.71,-0.02 0.71,-0.02 0.71,-0.02 0.71,-0.02 0.71,-0.01 0.7,-0.01 0.71,-0.01 0.71,-0.01 0.71,-0.01 0.71,0 0.71,-0.01 0.71,0 0.71,-0.01 0.71,0 0.71,0 0.71,-0.01 0.71,0 0.71,0 0.7,0 0.71,0 0.71,-0.01 0.71,0 0.71,0 0.71,0 0.71,0 0.71,0 0.71,0 0,0 -0.71,0 -0.71,0 -0.71,0 -0.71,0 -0.71,0 -0.71,0 -0.71,0 -0.71,0 -0.7,0 -0.71,0 -0.71,0 -0.71,0 -0.71,0 -0.71,0 -0.71,0 -0.71,0 -0.71,0 -0.71,0 -0.71,0 -0.71,0 -0.71,0 -0.7,0 -0.71,0 -0.71,0 -0.71,0 -0.71,0 -0.71,0 -0.71,0 -0.71,0 -0.71,0 -0.71,0 -0.71,0 -0.71,0 -0.71,0 -0.7,0 -0.71,0 -0.71,0 -0.71,0 -0.71,0 -0.71,0 -0.71,0 -0.71,0 -0.71,0 -0.71,0 -0.71,0 -0.71,0 -0.71,0 -0.7,0 -0.71,0 -0.71,0 -0.71,0 -0.71,0 -0.71,0 -0.71,0 -0.71,0 -0.71,0 -0.71,0 -0.71,0 -0.71,0 -0.71,0 -0.7,0 -0.71,0 -0.71,0 -0.71,0 -0.71,0 -0.71,0 -0.71,0 -0.71,0 -0.71,0 -0.71,0 -0.71,0 -0.71,0 -0.71,0 -0.7,0 -0.71,0 -0.71,0 -0.71,0 -0.71,0 -0.71,0 -0.71,0 -0.71,0 -0.71,0 -0.71,0 -0.71,0 -0.71,0 -0.71,0 -0.71,0 -0.7,0 -0.71,0 -0.71,0 -0.71,0 -0.71,0 -0.71,0 -0.71,0 -0.71,0 -0.71,0 -0.71,0 -0.71,0 -0.71,0 -0.71,0 -0.7,0 -0.71,0 -0.71,0 -0.71,0 -0.71,0 -0.71,0 -0.71,0 -0.71,0 -0.71,0 -0.71,0 -0.71,0 -0.71,0 -0.71,0 -0.7,0 -0.71,0 -0.71,0 -0.71,0 -0.71,0 -0.71,0 -0.71,0 -0.71,0 -0.71,0 -0.71,0 -0.71,0 -0.71,0 -0.71,0 -0.7,0 -0.71,0 -0.71,0 -0.71,0 -0.71,0 -0.71,0 -0.71,0 -0.71,0 -0.71,0 -0.71,0 -0.71,0 -0.71,0 -0.71,0 -0.7,0 -0.71,0 -0.71,0 -0.71,0 -0.71,0 -0.71,0 -0.71,0 -0.71,0 -0.71,0 -0.71,0 -0.71,0 -0.71,0 -0.71,0 -0.7,0 -0.71,0 -0.71,0 -0.71,0 -0.71,0 -0.71,0 -0.71,0 -0.71,0 -0.71,0 -0.71,0 -0.71,0 -0.71,0 -0.71,0 -0.71,0 -0.7,0 -0.71,0 -0.71,0 -0.71,0 -0.71,0 -0.71,0 -0.71,0 -0.71,0 -0.71,0 -0.71,0 -0.71,0 -0.71,0 -0.71,0 -0.7,0 -0.71,0 -0.71,0 -0.71,0 -0.71,0 -0.71,0 -0.71,0 -0.71,0 -0.71,0 -0.71,0 -0.71,0 -0.71,0 -0.71,0 -0.7,0 -0.71,0 -0.71,0 -0.71,0 -0.71,0 -0.71,0 -0.71,0 -0.71,0 -0.71,0 -0.71,0 -0.71,0 -0.71,0 -0.71,0 -0.7,0 -0.71,0 -0.71,0 -0.71,0 -0.71,0 -0.71,0 -0.71,0 -0.71,0 -0.71,0 -0.71,0 -0.71,0 -0.71,0 -0.71,0 -0.7,0 -0.71,0 -0.71,0 -0.71,0 -0.71,0 -0.71,0 -0.71,0 -0.71,0 -0.71,0 -0.71,0 -0.71,0 -0.71,0 -0.71,0 -0.7,0 -0.71,0 -0.71,0 -0.71,0 -0.71,0 -0.71,0 -0.71,0 -0.71,0 -0.71,0 -0.71,0 -0.71,0 -0.71,0 -0.71,0 -0.71,0 -0.7,0 -0.71,0 -0.71,0 -0.71,0 -0.71,0 -0.71,0 -0.71,0 -0.71,0 -0.71,0 -0.71,0 -0.71,0 -0.71,0 -0.71,0 -0.7,0 -0.71,0 -0.71,0 -0.71,0 -0.71,0 -0.71,0 -0.71,0 -0.71,0 -0.71,0 -0.71,0 -0.71,0 -0.71,0 -0.71,0 -0.7,0 -0.71,0 -0.71,0 -0.71,0 -0.71,0 -0.71,0 -0.71,0 -0.71,0 -0.71,0 -0.71,0 -0.71,0 -0.71,0 -0.71,0 -0.7,0 -0.71,0 -0.71,0 -0.71,0 -0.71,0 -0.71,0 -0.71,0 -0.71,0 -0.71,0 -0.71,0 -0.71,0 -0.71,0 -0.71,0 -0.7,0 -0.71,0 -0.71,0 -0.71,0 -0.71,0 -0.71,0 -0.71,0 -0.71,0 -0.71,0 -0.71,0 -0.71,0 -0.71,0 -0.71,0 -0.7,0 -0.71,0 -0.71,0 -0.71,0 -0.71,0 -0.71,0 -0.71,0 -0.71,0 -0.71,0 -0.71,0 -0.71,0 -0.71,0 -0.71,0 -0.71,0 -0.7,0 -0.71,0 -0.71,0 -0.71,0 -0.71,0 -0.71,0 -0.71,0 -0.71,0 -0.71,0 -0.71,0 -0.71,0 -0.71,0 -0.71,0 -0.7,0 -0.71,0 -0.71,0 -0.71,0 -0.71,0 -0.71,0 -0.71,0 -0.71,0 -0.71,0 -0.71,0 -0.71,0 -0.71,0 -0.71,0 -0.7,0 -0.71,0 -0.71,0 -0.71,0 -0.71,0 -0.71,0 -0.71,0 -0.71,0 -0.71,0 -0.71,0 -0.71,0 -0.71,0 -0.71,0 -0.7,0 -0.71,0 -0.71,0 -0.71,0 -0.71,0 -0.71,0 -0.71,0 -0.71,0 -0.71,0 -0.71,0 -0.71,0 -0.71,0 -0.71,0 -0.7,0 -0.71,0 -0.71,0 -0.71,0 -0.71,0 -0.71,0 -0.71,0 -0.71,0 -0.71,0 -0.71,0 -0.71,0 -0.71,0 -0.71,0 -0.7,0 -0.71,0 -0.71,0 -0.71,0 -0.71,0 -0.71,0 -0.71,0 -0.71,0 -0.71,0 -0.71,0 -0.71,0 -0.71,0 -0.71,0 -0.7,0 -0.71,0 -0.71,0 -0.71,0 -0.71,0 -0.71,0 -0.71,0 -0.71,0 -0.71,0 -0.71,0 -0.71,0 -0.71,0 -0.71,0 -0.71,0 -0.7,0 -0.71,0 -0.71,0 -0.71,0 -0.71,0 -0.71,0 -0.71,0 -0.71,0 -0.71,0 -0.71,0 -0.71,0 -0.71,0 -0.71,0 -0.7,0 -0.71,0 -0.71,0 -0.71,0 -0.71,0 -0.71,0 -0.71,0 -0.71,0 -0.71,0 -0.71,0 -0.71,0 -0.71,0 -0.71,0 -0.7,0 -0.71,0 -0.71,0 -0.71,0 -0.71,0 -0.71,0 -0.71,0 -0.71,0 -0.71,0 -0.71,0 -0.71,0 -0.71,0 -0.71,0 -0.7,0 -0.71,0 -0.71,0 -0.71,0 -0.71,0 -0.71,0 -0.71,0 -0.71,0 -0.71,0 -0.71,0 -0.71,0 -0.71,0 -0.71,0 -0.7,0 -0.71,0 -0.71,0 -0.71,0 -0.71,0 -0.71,0 -0.71,0 -0.71,0 -0.71,0 -0.71,0 -0.71,0 -0.71,0 -0.71,0 -0.7,0 -0.71,0 -0.71,0 -0.71,0 -0.71,0 -0.71,0 -0.71,0 -0.71,0 -0.71,0 -0.71,0 -0.71,0 -0.71,0 -0.71,0 -0.71,0 -0.7,0 -0.71,0 -0.71,0 -0.71,0 -0.71,0 -0.71,0 -0.71,0 -0.71,0 -0.71,0 -0.71,0 -0.71,0 -0.71,0 -0.71,0 -0.7,0 -0.71,0 -0.71,0 0,0.02 z"
           style="fill:#f8766d;fill-opacity:0.2;fill-rule:nonzero;stroke:#000000;stroke-opacity:1;stroke-width:2.13;stroke-linecap:round;stroke-linejoin:round;stroke-miterlimit:10;stroke-dasharray:none"
           id="path3118" /><path
           d="m 109.06,71.86 0.71,0 0.71,0 0.7,0 0.71,0 0.71,0 0.71,0 0.71,0 0.71,0 0.71,0 0.71,0 0.71,0 0.71,0 0.71,0 0.71,0 0.71,0 0.7,0 0.71,0 0.71,0 0.71,0 0.71,0 0.71,0 0.71,0 0.71,0 0.71,0 0.71,0 0.71,0 0.71,0 0.71,0 0.71,0 0.7,0 0.71,0 0.71,0 0.71,0 0.71,0 0.71,0 0.71,0 0.71,0 0.71,0 0.71,0 0.71,0 0.71,0 0.71,0 0.7,0 0.71,0 0.71,0 0.71,0 0.71,0 0.71,0 0.71,0 0.71,0 0.71,0 0.71,0 0.71,0 0.71,0 0.71,0 0.7,0 0.71,0 0.71,0 0.71,0 0.71,0 0.71,0 0.71,0 0.71,0 0.71,0 0.71,0 0.71,0.01 0.71,0 0.71,0 0.7,0 0.71,0 0.71,0 0.71,0.01 0.71,0 0.71,0 0.71,0.01 0.71,0 0.71,0 0.71,0.01 0.71,0.01 0.71,0 0.71,0.01 0.7,0.01 0.71,0.01 0.71,0.01 0.71,0.02 0.71,0.01 0.71,0.02 0.71,0.02 0.71,0.02 0.71,0.03 0.71,0.02 0.71,0.03 0.71,0.03 0.71,0.04 0.7,0.04 0.71,0.05 0.71,0.05 0.71,0.05 0.71,0.06 0.71,0.06 0.71,0.08 0.71,0.07 0.71,0.09 0.71,0.09 0.71,0.1 0.71,0.1 0.71,0.12 0.71,0.12 0.7,0.13 0.71,0.14 0.71,0.16 0.71,0.16 0.71,0.17 0.71,0.18 0.71,0.2 0.71,0.2 0.71,0.22 0.71,0.23 0.71,0.24 0.71,0.26 0.71,0.27 0.7,0.27 0.71,0.3 0.71,0.3 0.71,0.32 0.71,0.33 0.71,0.34 0.71,0.36 0.71,0.37 0.71,0.38 0.71,0.39 0.71,0.41 0.71,0.42 0.71,0.43 0.7,0.44 0.71,0.46 0.71,0.47 0.71,0.48 0.71,0.5 0.71,0.5 0.71,0.52 0.71,0.53 0.71,0.55 0.71,0.56 0.71,0.58 0.71,0.58 0.71,0.61 0.7,0.62 0.71,0.64 0.71,0.65 0.71,0.68 0.71,0.7 0.71,0.71 0.71,0.73 0.71,0.76 0.71,0.78 0.71,0.81 0.71,0.83 0.71,0.86 0.71,0.88 0.7,0.91 0.71,0.95 0.71,0.97 0.71,1.01 0.71,1.03 0.71,1.07 0.71,1.1 0.71,1.13 0.71,1.16 0.71,1.2 0.71,1.23 0.71,1.26 0.71,1.29 0.7,1.33 0.71,1.35 0.71,1.38 0.71,1.42 0.71,1.44 0.71,1.46 0.71,1.49 0.71,1.52 0.71,1.54 0.71,1.56 0.71,1.58 0.71,1.6 0.71,1.63 0.7,1.63 0.71,1.66 0.71,1.67 0.71,1.69 0.71,1.7 0.71,1.73 0.71,1.74 0.71,1.75 0.71,1.78 0.71,1.79 0.71,1.82 0.71,1.83 0.71,1.86 0.71,1.89 0.7,1.92 0.71,1.94 0.71,1.98 0.71,2.02 0.71,2.06 0.71,2.09 0.71,2.14 0.71,2.2 0.71,2.23 0.71,2.29 0.71,2.35 0.71,2.41 0.71,2.47 0.7,2.51 0.71,2.6 0.71,2.66 0.71,2.71 0.71,2.77 0.71,2.85 0.71,2.9 0.71,2.96 0.71,3.02 0.71,3.08 0.71,3.13 0.71,3.16 0.71,3.22 0.7,3.26 0.71,3.29 0.71,3.31 0.71,3.33 0.71,3.35 0.71,3.34 0.71,3.35 0.71,3.34 0.71,3.32 0.71,3.29 0.71,3.26 0.71,3.21 0.71,3.16 0.7,3.12 0.71,3.03 0.71,2.95 0.71,2.88 0.71,2.8 0.71,2.68 0.71,2.57 0.71,2.48 0.71,2.38 0.71,2.21 0.71,2.1 0.71,1.99 0.71,1.85 0.7,1.68 0.71,1.56 0.71,1.43 0.71,1.27 0.71,1.1 0.71,0.98 0.71,0.84 0.71,0.66 0.71,0.51 0.71,0.37 0.71,0.25 0.71,0.04 0.71,-0.08 0.7,-0.21 0.71,-0.35 0.71,-0.54 0.71,-0.65 0.71,-0.78 0.71,-0.92 0.71,-1.08 0.71,-1.19 0.71,-1.31 0.71,-1.45 0.71,-1.58 0.71,-1.68 0.71,-1.79 0.71,-1.93 0.7,-2.03 0.71,-2.12 0.71,-2.22 0.71,-2.34 0.71,-2.42 0.71,-2.5 0.71,-2.58 0.71,-2.68 0.71,-2.74 0.71,-2.79 0.71,-2.87 0.71,-2.92 0.71,-2.97 0.7,-3 0.71,-3.05 0.71,-3.08 0.71,-3.1 0.71,-3.12 0.71,-3.13 0.71,-3.12 0.71,-3.13 0.71,-3.12 0.71,-3.09 0.71,-3.08 0.71,-3.04 0.71,-3.01 0.7,-2.96 0.71,-2.92 0.71,-2.87 0.71,-2.8 0.71,-2.74 0.71,-2.67 0.71,-2.61 0.71,-2.52 0.71,-2.44 0.71,-2.36 0.71,-2.29 0.71,-2.17 0.71,-2.09 0.7,-2.01 0.71,-1.92 0.71,-1.81 0.71,-1.72 0.71,-1.64 0.71,-1.54 0.71,-1.44 0.71,-1.36 0.71,-1.27 0.71,-1.17 0.71,-1.09 0.71,-1.01 0.71,-0.94 0.7,-0.84 0.71,-0.76 0.71,-0.71 0.71,-0.64 0.71,-0.55 0.71,-0.5 0.71,-0.45 0.71,-0.39 0.71,-0.32 0.71,-0.29 0.71,-0.25 0.71,-0.2 0.71,-0.17 0.7,-0.13 0.71,-0.11 0.71,-0.08 0.71,-0.06 0.71,-0.04 0.71,-0.03 0.71,-0.02 0.71,-0.01 0.71,-0.01 0.71,-0.01 0.71,-0.01 0.71,-0.02 0.71,-0.03 0.71,-0.05 0.7,-0.06 0.71,-0.07 0.71,-0.1 0.71,-0.12 0.71,-0.15 0.71,-0.17 0.71,-0.19 0.71,-0.23 0.71,-0.27 0.71,-0.29 0.71,-0.32 0.71,-0.37 0.71,-0.39 0.7,-0.43 0.71,-0.46 0.71,-0.51 0.71,-0.54 0.71,-0.56 0.71,-0.61 0.71,-0.64 0.71,-0.68 0.71,-0.7 0.71,-0.74 0.71,-0.77 0.71,-0.8 0.71,-0.82 0.7,-0.86 0.71,-0.88 0.71,-0.91 0.71,-0.93 0.71,-0.96 0.71,-0.97 0.71,-1 0.71,-1.02 0.71,-1.04 0.71,-1.05 0.71,-1.07 0.71,-1.08 0.71,-1.11 0.7,-1.11 0.71,-1.12 0.71,-1.15 0.71,-1.15 0.71,-1.16 0.71,-1.17 0.71,-1.18 0.71,-1.19 0.71,-1.2 0.71,-1.2 0.71,-1.21 0.71,-1.22 0.71,-1.22 0.7,-1.23 0.71,-1.22 0.71,-1.24 0.71,-1.23 0.71,-1.23 0.71,-1.24 0.71,-1.23 0.71,-1.23 0.71,-1.22 0.71,-1.23 0.71,-1.21 0.71,-1.21 0.71,-1.2 0.7,-1.19 0.71,-1.18 0.71,-1.17 0.71,-1.15 0.71,-1.13 0.71,-1.13 0.71,-1.1 0.71,-1.08 0.71,-1.07 0.71,-1.04 0.71,-1.02 0.71,-0.99 0.71,-0.98 0.71,-0.94 0.7,-0.92 0.71,-0.89 0.71,-0.87 0.71,-0.83 0.71,-0.8 0.71,-0.78 0.71,-0.75 0.71,-0.72 0.71,-0.68 0.71,-0.66 0.71,-0.64 0.71,-0.59 0.71,-0.57 0.7,-0.54 0.71,-0.52 0.71,-0.48 0.71,-0.46 0.71,-0.43 0.71,-0.41 0.71,-0.38 0.71,-0.36 0.71,-0.34 0.71,-0.31 0.71,-0.29 0.71,-0.27 0.71,-0.25 0.7,-0.23 0.71,-0.22 0.71,-0.2 0.71,-0.18 0.71,-0.17 0.71,-0.15 0.71,-0.15 0.71,-0.13 0.71,-0.11 0.71,-0.11 0.71,-0.1 0.71,-0.09 0.71,-0.08 0.7,-0.07 0.71,-0.07 0.71,-0.05 0.71,-0.06 0.71,-0.04 0.71,-0.05 0.71,-0.03 0.71,-0.04 0.71,-0.03 0.71,-0.02 0.71,-0.03 0.71,-0.02 0.71,-0.02 0.7,-0.01 0.71,-0.02 0.71,-0.01 0.71,-0.01 0.71,-0.01 0.71,-0.01 0.71,-0.01 0.71,0 0.71,-0.01 0.71,0 0.71,-0.01 0.71,0 0.71,0 0.7,-0.01 0.71,0 0.71,0 0.71,0 0.71,0 0.71,0 0.71,-0.01 0.71,0 0.71,0 0,0 -0.71,0 -0.71,0 -0.71,0 -0.71,0 -0.71,0 -0.71,0 -0.71,0 -0.71,0 -0.7,0 -0.71,0 -0.71,0 -0.71,0 -0.71,0 -0.71,0 -0.71,0 -0.71,0 -0.71,0 -0.71,0 -0.71,0 -0.71,0 -0.71,0 -0.7,0 -0.71,0 -0.71,0 -0.71,0 -0.71,0 -0.71,0 -0.71,0 -0.71,0 -0.71,0 -0.71,0 -0.71,0 -0.71,0 -0.71,0 -0.7,0 -0.71,0 -0.71,0 -0.71,0 -0.71,0 -0.71,0 -0.71,0 -0.71,0 -0.71,0 -0.71,0 -0.71,0 -0.71,0 -0.71,0 -0.7,0 -0.71,0 -0.71,0 -0.71,0 -0.71,0 -0.71,0 -0.71,0 -0.71,0 -0.71,0 -0.71,0 -0.71,0 -0.71,0 -0.71,0 -0.7,0 -0.71,0 -0.71,0 -0.71,0 -0.71,0 -0.71,0 -0.71,0 -0.71,0 -0.71,0 -0.71,0 -0.71,0 -0.71,0 -0.71,0 -0.7,0 -0.71,0 -0.71,0 -0.71,0 -0.71,0 -0.71,0 -0.71,0 -0.71,0 -0.71,0 -0.71,0 -0.71,0 -0.71,0 -0.71,0 -0.71,0 -0.7,0 -0.71,0 -0.71,0 -0.71,0 -0.71,0 -0.71,0 -0.71,0 -0.71,0 -0.71,0 -0.71,0 -0.71,0 -0.71,0 -0.71,0 -0.7,0 -0.71,0 -0.71,0 -0.71,0 -0.71,0 -0.71,0 -0.71,0 -0.71,0 -0.71,0 -0.71,0 -0.71,0 -0.71,0 -0.71,0 -0.7,0 -0.71,0 -0.71,0 -0.71,0 -0.71,0 -0.71,0 -0.71,0 -0.71,0 -0.71,0 -0.71,0 -0.71,0 -0.71,0 -0.71,0 -0.7,0 -0.71,0 -0.71,0 -0.71,0 -0.71,0 -0.71,0 -0.71,0 -0.71,0 -0.71,0 -0.71,0 -0.71,0 -0.71,0 -0.71,0 -0.7,0 -0.71,0 -0.71,0 -0.71,0 -0.71,0 -0.71,0 -0.71,0 -0.71,0 -0.71,0 -0.71,0 -0.71,0 -0.71,0 -0.71,0 -0.7,0 -0.71,0 -0.71,0 -0.71,0 -0.71,0 -0.71,0 -0.71,0 -0.71,0 -0.71,0 -0.71,0 -0.71,0 -0.71,0 -0.71,0 -0.71,0 -0.7,0 -0.71,0 -0.71,0 -0.71,0 -0.71,0 -0.71,0 -0.71,0 -0.71,0 -0.71,0 -0.71,0 -0.71,0 -0.71,0 -0.71,0 -0.7,0 -0.71,0 -0.71,0 -0.71,0 -0.71,0 -0.71,0 -0.71,0 -0.71,0 -0.71,0 -0.71,0 -0.71,0 -0.71,0 -0.71,0 -0.7,0 -0.71,0 -0.71,0 -0.71,0 -0.71,0 -0.71,0 -0.71,0 -0.71,0 -0.71,0 -0.71,0 -0.71,0 -0.71,0 -0.71,0 -0.7,0 -0.71,0 -0.71,0 -0.71,0 -0.71,0 -0.71,0 -0.71,0 -0.71,0 -0.71,0 -0.71,0 -0.71,0 -0.71,0 -0.71,0 -0.7,0 -0.71,0 -0.71,0 -0.71,0 -0.71,0 -0.71,0 -0.71,0 -0.71,0 -0.71,0 -0.71,0 -0.71,0 -0.71,0 -0.71,0 -0.7,0 -0.71,0 -0.71,0 -0.71,0 -0.71,0 -0.71,0 -0.71,0 -0.71,0 -0.71,0 -0.71,0 -0.71,0 -0.71,0 -0.71,0 -0.71,0 -0.7,0 -0.71,0 -0.71,0 -0.71,0 -0.71,0 -0.71,0 -0.71,0 -0.71,0 -0.71,0 -0.71,0 -0.71,0 -0.71,0 -0.71,0 -0.7,0 -0.71,0 -0.71,0 -0.71,0 -0.71,0 -0.71,0 -0.71,0 -0.71,0 -0.71,0 -0.71,0 -0.71,0 -0.71,0 -0.71,0 -0.7,0 -0.71,0 -0.71,0 -0.71,0 -0.71,0 -0.71,0 -0.71,0 -0.71,0 -0.71,0 -0.71,0 -0.71,0 -0.71,0 -0.71,0 -0.7,0 -0.71,0 -0.71,0 -0.71,0 -0.71,0 -0.71,0 -0.71,0 -0.71,0 -0.71,0 -0.71,0 -0.71,0 -0.71,0 -0.71,0 -0.7,0 -0.71,0 -0.71,0 -0.71,0 -0.71,0 -0.71,0 -0.71,0 -0.71,0 -0.71,0 -0.71,0 -0.71,0 -0.71,0 -0.71,0 -0.7,0 -0.71,0 -0.71,0 -0.71,0 -0.71,0 -0.71,0 -0.71,0 -0.71,0 -0.71,0 -0.71,0 -0.71,0 -0.71,0 -0.71,0 -0.71,0 -0.7,0 -0.71,0 -0.71,0 -0.71,0 -0.71,0 -0.71,0 -0.71,0 -0.71,0 -0.71,0 -0.71,0 -0.71,0 -0.71,0 -0.71,0 -0.7,0 -0.71,0 -0.71,0 -0.71,0 -0.71,0 -0.71,0 -0.71,0 -0.71,0 -0.71,0 -0.71,0 -0.71,0 -0.71,0 -0.71,0 -0.7,0 -0.71,0 -0.71,0 -0.71,0 -0.71,0 -0.71,0 -0.71,0 -0.71,0 -0.71,0 -0.71,0 -0.71,0 -0.71,0 -0.71,0 -0.7,0 -0.71,0 -0.71,0 -0.71,0 -0.71,0 -0.71,0 -0.71,0 -0.71,0 -0.71,0 -0.71,0 -0.71,0 -0.71,0 -0.71,0 -0.7,0 -0.71,0 -0.71,0 -0.71,0 -0.71,0 -0.71,0 -0.71,0 -0.71,0 -0.71,0 -0.71,0 -0.71,0 -0.71,0 -0.71,0 -0.7,0 -0.71,0 -0.71,0 -0.71,0 -0.71,0 -0.71,0 -0.71,0 -0.71,0 -0.71,0 -0.71,0 -0.71,0 -0.71,0 -0.71,0 -0.7,0 -0.71,0 -0.71,0 -0.71,0 -0.71,0 -0.71,0 -0.71,0 -0.71,0 -0.71,0 -0.71,0 -0.71,0 -0.71,0 -0.71,0 -0.71,0 -0.7,0 -0.71,0 -0.71,0 -0.71,0 -0.71,0 -0.71,0 -0.71,0 -0.71,0 -0.71,0 -0.71,0 -0.71,0 -0.71,0 -0.71,0 -0.7,0 -0.71,0 -0.71,0 -0.71,0 -0.71,0 -0.71,0 -0.71,0 -0.71,0 -0.71,0 -0.71,0 -0.71,0 -0.71,0 -0.71,0 -0.7,0 -0.71,0 -0.71,0 -0.71,0 -0.71,0 -0.71,0 -0.71,0 -0.71,0 -0.71,0 -0.71,0 -0.71,0 -0.71,0 -0.71,0 -0.7,0 -0.71,0 -0.71,0 -0.71,0 -0.71,0 -0.71,0 -0.71,0 -0.71,0 -0.71,0 -0.71,0 -0.71,0 -0.71,0 -0.71,0 -0.7,0 -0.71,0 -0.71,0 -0.71,0 -0.71,0 -0.71,0 -0.71,0 -0.71,0 -0.71,0 -0.71,0 -0.71,0 -0.71,0 -0.71,0 -0.7,0 -0.71,0 -0.71,0 -0.71,0 -0.71,0 -0.71,0 -0.71,0 -0.71,0 -0.71,0 -0.71,0 -0.71,0 -0.71,0 -0.71,0 -0.71,0 -0.7,0 -0.71,0 -0.71,0 -0.71,0 -0.71,0 -0.71,0 -0.71,0 -0.71,0 -0.71,0 -0.71,0 -0.71,0 -0.71,0 -0.71,0 -0.7,0 -0.71,0 -0.71,0 z"
           style="fill:#00ba38;fill-opacity:0.2;fill-rule:nonzero;stroke:#000000;stroke-opacity:1;stroke-width:2.13;stroke-linecap:round;stroke-linejoin:round;stroke-miterlimit:10;stroke-dasharray:none"
           id="path3120" /><path
           d="m 109.06,71.86 0.71,0 0.71,0 0.7,0 0.71,0 0.71,0 0.71,0 0.71,0 0.71,0 0.71,0 0.71,0 0.71,0 0.71,0 0.71,0 0.71,0 0.71,0 0.7,0 0.71,0 0.71,0 0.71,0 0.71,0 0.71,0 0.71,0 0.71,0 0.71,0 0.71,0 0.71,0 0.71,0 0.71,0 0.71,0 0.7,0 0.71,0 0.71,0 0.71,0 0.71,0 0.71,0 0.71,0 0.71,0 0.71,0 0.71,0 0.71,0 0.71,0 0.71,0 0.7,0 0.71,0 0.71,0 0.71,0 0.71,0 0.71,0 0.71,0 0.71,0 0.71,0 0.71,0 0.71,0 0.71,0 0.71,0 0.7,0 0.71,0 0.71,0 0.71,0 0.71,0 0.71,0 0.71,0 0.71,0 0.71,0 0.71,0 0.71,0 0.71,0 0.71,0 0.7,0 0.71,0 0.71,0 0.71,0 0.71,0 0.71,0 0.71,0 0.71,0 0.71,0 0.71,0 0.71,0 0.71,0 0.71,0 0.7,0 0.71,0 0.71,0 0.71,0 0.71,0 0.71,0 0.71,0 0.71,0 0.71,0 0.71,0 0.71,0 0.71,0 0.71,0 0.7,0 0.71,0 0.71,0 0.71,0 0.71,0 0.71,0 0.71,0 0.71,0 0.71,0 0.71,0 0.71,0 0.71,0 0.71,0 0.71,0 0.7,0 0.71,0 0.71,0 0.71,0 0.71,0 0.71,0 0.71,0 0.71,0 0.71,0 0.71,0 0.71,0 0.71,0 0.71,0 0.7,0 0.71,0 0.71,0.01 0.71,0 0.71,0 0.71,0 0.71,0 0.71,0.01 0.71,0 0.71,0 0.71,0.01 0.71,0.01 0.71,0 0.7,0.01 0.71,0.01 0.71,0.02 0.71,0.01 0.71,0.02 0.71,0.02 0.71,0.02 0.71,0.03 0.71,0.03 0.71,0.03 0.71,0.04 0.71,0.05 0.71,0.05 0.7,0.06 0.71,0.07 0.71,0.07 0.71,0.09 0.71,0.09 0.71,0.11 0.71,0.11 0.71,0.13 0.71,0.15 0.71,0.15 0.71,0.18 0.71,0.19 0.71,0.2 0.7,0.22 0.71,0.24 0.71,0.26 0.71,0.28 0.71,0.29 0.71,0.31 0.71,0.34 0.71,0.35 0.71,0.37 0.71,0.39 0.71,0.41 0.71,0.42 0.71,0.44 0.7,0.46 0.71,0.46 0.71,0.48 0.71,0.49 0.71,0.49 0.71,0.5 0.71,0.51 0.71,0.5 0.71,0.51 0.71,0.5 0.71,0.5 0.71,0.49 0.71,0.48 0.7,0.47 0.71,0.46 0.71,0.44 0.71,0.42 0.71,0.41 0.71,0.39 0.71,0.38 0.71,0.35 0.71,0.33 0.71,0.32 0.71,0.3 0.71,0.28 0.71,0.26 0.71,0.25 0.7,0.24 0.71,0.22 0.71,0.22 0.71,0.21 0.71,0.2 0.71,0.2 0.71,0.21 0.71,0.21 0.71,0.21 0.71,0.23 0.71,0.24 0.71,0.25 0.71,0.28 0.7,0.29 0.71,0.32 0.71,0.35 0.71,0.38 0.71,0.41 0.71,0.44 0.71,0.49 0.71,0.53 0.71,0.57 0.71,0.62 0.71,0.66 0.71,0.72 0.71,0.78 0.7,0.83 0.71,0.88 0.71,0.95 0.71,1.02 0.71,1.09 0.71,1.14 0.71,1.21 0.71,1.3 0.71,1.37 0.71,1.44 0.71,1.52 0.71,1.59 0.71,1.69 0.7,1.76 0.71,1.84 0.71,1.91 0.71,2.01 0.71,2.09 0.71,2.17 0.71,2.24 0.71,2.33 0.71,2.41 0.71,2.49 0.71,2.56 0.71,2.63 0.71,2.72 0.7,2.78 0.71,2.85 0.71,2.92 0.71,2.99 0.71,3.05 0.71,3.12 0.71,3.18 0.71,3.23 0.71,3.3 0.71,3.36 0.71,3.42 0.71,3.46 0.71,3.53 0.7,3.58 0.71,3.64 0.71,3.68 0.71,3.73 0.71,3.79 0.71,3.84 0.71,3.88 0.71,3.92 0.71,3.98 0.71,4.01 0.71,4.04 0.71,4.07 0.71,4.11 0.71,4.12 0.7,4.15 0.71,4.14 0.71,4.16 0.71,4.15 0.71,4.13 0.71,4.11 0.71,4.08 0.71,4.04 0.71,3.97 0.71,3.92 0.71,3.84 0.71,3.77 0.71,3.66 0.7,3.54 0.71,3.44 0.71,3.31 0.71,3.18 0.71,3 0.71,2.86 0.71,2.71 0.71,2.54 0.71,2.34 0.71,2.15 0.71,1.99 0.71,1.81 0.71,1.61 0.7,1.39 0.71,1.22 0.71,1.04 0.71,0.87 0.71,0.65 0.71,0.47 0.71,0.32 0.71,0.16 0.71,0 0.71,-0.18 0.71,-0.31 0.71,-0.44 0.71,-0.56 0.7,-0.71 0.71,-0.82 0.71,-0.92 0.71,-1.01 0.71,-1.11 0.71,-1.2 0.71,-1.27 0.71,-1.33 0.71,-1.4 0.71,-1.47 0.71,-1.53 0.71,-1.56 0.71,-1.61 0.7,-1.65 0.71,-1.69 0.71,-1.72 0.71,-1.74 0.71,-1.76 0.71,-1.79 0.71,-1.8 0.71,-1.81 0.71,-1.82 0.71,-1.83 0.71,-1.82 0.71,-1.82 0.71,-1.82 0.7,-1.8 0.71,-1.79 0.71,-1.77 0.71,-1.75 0.71,-1.73 0.71,-1.71 0.71,-1.67 0.71,-1.65 0.71,-1.63 0.71,-1.6 0.71,-1.56 0.71,-1.54 0.71,-1.52 0.71,-1.51 0.7,-1.48 0.71,-1.47 0.71,-1.46 0.71,-1.46 0.71,-1.47 0.71,-1.47 0.71,-1.5 0.71,-1.52 0.71,-1.54 0.71,-1.59 0.71,-1.63 0.71,-1.68 0.71,-1.74 0.7,-1.8 0.71,-1.88 0.71,-1.95 0.71,-2.02 0.71,-2.09 0.71,-2.19 0.71,-2.28 0.71,-2.36 0.71,-2.43 0.71,-2.51 0.71,-2.62 0.71,-2.68 0.71,-2.76 0.7,-2.82 0.71,-2.9 0.71,-2.97 0.71,-3.01 0.71,-3.06 0.71,-3.11 0.71,-3.16 0.71,-3.19 0.71,-3.21 0.71,-3.23 0.71,-3.26 0.71,-3.26 0.71,-3.27 0.7,-3.27 0.71,-3.27 0.71,-3.26 0.71,-3.25 0.71,-3.23 0.71,-3.21 0.71,-3.19 0.71,-3.15 0.71,-3.14 0.71,-3.1 0.71,-3.06 0.71,-3.02 0.71,-2.98 0.7,-2.94 0.71,-2.89 0.71,-2.83 0.71,-2.78 0.71,-2.73 0.71,-2.68 0.71,-2.61 0.71,-2.53 0.71,-2.48 0.71,-2.41 0.71,-2.34 0.71,-2.25 0.71,-2.17 0.7,-2.1 0.71,-2.04 0.71,-1.93 0.71,-1.85 0.71,-1.77 0.71,-1.7 0.71,-1.62 0.71,-1.51 0.71,-1.43 0.71,-1.36 0.71,-1.28 0.71,-1.19 0.71,-1.11 0.71,-1.04 0.7,-0.98 0.71,-0.9 0.71,-0.82 0.71,-0.77 0.71,-0.7 0.71,-0.65 0.71,-0.59 0.71,-0.53 0.71,-0.49 0.71,-0.44 0.71,-0.4 0.71,-0.35 0.71,-0.32 0.7,-0.29 0.71,-0.26 0.71,-0.23 0.71,-0.2 0.71,-0.17 0.71,-0.16 0.71,-0.14 0.71,-0.12 0.71,-0.1 0.71,-0.1 0.71,-0.08 0.71,-0.07 0.71,-0.05 0.7,-0.05 0.71,-0.05 0.71,-0.04 0.71,-0.03 0.71,-0.02 0.71,-0.03 0.71,-0.02 0.71,-0.01 0.71,-0.02 0.71,-0.01 0.71,-0.01 0.71,-0.01 0.71,0 0.7,-0.01 0.71,0 0.71,-0.01 0.71,0 0.71,0 0.71,0 0.71,0 0.71,-0.01 0.71,0 0.71,0 0.71,0 0.71,0 0.71,0 0.7,0 0.71,0 0.71,0 0.71,0 0.71,0 0.71,0 0.71,0 0.71,0 0.71,0 0.71,0 0.71,0 0.71,0 0.71,0 0.7,0 0.71,0 0.71,0 0.71,0 0.71,0 0.71,0 0.71,0 0.71,0 0.71,0 0,0 -0.71,0 -0.71,0 -0.71,0 -0.71,0 -0.71,0 -0.71,0 -0.71,0 -0.71,0 -0.7,0 -0.71,0 -0.71,0 -0.71,0 -0.71,0 -0.71,0 -0.71,0 -0.71,0 -0.71,0 -0.71,0 -0.71,0 -0.71,0 -0.71,0 -0.7,0 -0.71,0 -0.71,0 -0.71,0 -0.71,0 -0.71,0 -0.71,0 -0.71,0 -0.71,0 -0.71,0 -0.71,0 -0.71,0 -0.71,0 -0.7,0 -0.71,0 -0.71,0 -0.71,0 -0.71,0 -0.71,0 -0.71,0 -0.71,0 -0.71,0 -0.71,0 -0.71,0 -0.71,0 -0.71,0 -0.7,0 -0.71,0 -0.71,0 -0.71,0 -0.71,0 -0.71,0 -0.71,0 -0.71,0 -0.71,0 -0.71,0 -0.71,0 -0.71,0 -0.71,0 -0.7,0 -0.71,0 -0.71,0 -0.71,0 -0.71,0 -0.71,0 -0.71,0 -0.71,0 -0.71,0 -0.71,0 -0.71,0 -0.71,0 -0.71,0 -0.7,0 -0.71,0 -0.71,0 -0.71,0 -0.71,0 -0.71,0 -0.71,0 -0.71,0 -0.71,0 -0.71,0 -0.71,0 -0.71,0 -0.71,0 -0.71,0 -0.7,0 -0.71,0 -0.71,0 -0.71,0 -0.71,0 -0.71,0 -0.71,0 -0.71,0 -0.71,0 -0.71,0 -0.71,0 -0.71,0 -0.71,0 -0.7,0 -0.71,0 -0.71,0 -0.71,0 -0.71,0 -0.71,0 -0.71,0 -0.71,0 -0.71,0 -0.71,0 -0.71,0 -0.71,0 -0.71,0 -0.7,0 -0.71,0 -0.71,0 -0.71,0 -0.71,0 -0.71,0 -0.71,0 -0.71,0 -0.71,0 -0.71,0 -0.71,0 -0.71,0 -0.71,0 -0.7,0 -0.71,0 -0.71,0 -0.71,0 -0.71,0 -0.71,0 -0.71,0 -0.71,0 -0.71,0 -0.71,0 -0.71,0 -0.71,0 -0.71,0 -0.7,0 -0.71,0 -0.71,0 -0.71,0 -0.71,0 -0.71,0 -0.71,0 -0.71,0 -0.71,0 -0.71,0 -0.71,0 -0.71,0 -0.71,0 -0.7,0 -0.71,0 -0.71,0 -0.71,0 -0.71,0 -0.71,0 -0.71,0 -0.71,0 -0.71,0 -0.71,0 -0.71,0 -0.71,0 -0.71,0 -0.71,0 -0.7,0 -0.71,0 -0.71,0 -0.71,0 -0.71,0 -0.71,0 -0.71,0 -0.71,0 -0.71,0 -0.71,0 -0.71,0 -0.71,0 -0.71,0 -0.7,0 -0.71,0 -0.71,0 -0.71,0 -0.71,0 -0.71,0 -0.71,0 -0.71,0 -0.71,0 -0.71,0 -0.71,0 -0.71,0 -0.71,0 -0.7,0 -0.71,0 -0.71,0 -0.71,0 -0.71,0 -0.71,0 -0.71,0 -0.71,0 -0.71,0 -0.71,0 -0.71,0 -0.71,0 -0.71,0 -0.7,0 -0.71,0 -0.71,0 -0.71,0 -0.71,0 -0.71,0 -0.71,0 -0.71,0 -0.71,0 -0.71,0 -0.71,0 -0.71,0 -0.71,0 -0.7,0 -0.71,0 -0.71,0 -0.71,0 -0.71,0 -0.71,0 -0.71,0 -0.71,0 -0.71,0 -0.71,0 -0.71,0 -0.71,0 -0.71,0 -0.7,0 -0.71,0 -0.71,0 -0.71,0 -0.71,0 -0.71,0 -0.71,0 -0.71,0 -0.71,0 -0.71,0 -0.71,0 -0.71,0 -0.71,0 -0.71,0 -0.7,0 -0.71,0 -0.71,0 -0.71,0 -0.71,0 -0.71,0 -0.71,0 -0.71,0 -0.71,0 -0.71,0 -0.71,0 -0.71,0 -0.71,0 -0.7,0 -0.71,0 -0.71,0 -0.71,0 -0.71,0 -0.71,0 -0.71,0 -0.71,0 -0.71,0 -0.71,0 -0.71,0 -0.71,0 -0.71,0 -0.7,0 -0.71,0 -0.71,0 -0.71,0 -0.71,0 -0.71,0 -0.71,0 -0.71,0 -0.71,0 -0.71,0 -0.71,0 -0.71,0 -0.71,0 -0.7,0 -0.71,0 -0.71,0 -0.71,0 -0.71,0 -0.71,0 -0.71,0 -0.71,0 -0.71,0 -0.71,0 -0.71,0 -0.71,0 -0.71,0 -0.7,0 -0.71,0 -0.71,0 -0.71,0 -0.71,0 -0.71,0 -0.71,0 -0.71,0 -0.71,0 -0.71,0 -0.71,0 -0.71,0 -0.71,0 -0.7,0 -0.71,0 -0.71,0 -0.71,0 -0.71,0 -0.71,0 -0.71,0 -0.71,0 -0.71,0 -0.71,0 -0.71,0 -0.71,0 -0.71,0 -0.71,0 -0.7,0 -0.71,0 -0.71,0 -0.71,0 -0.71,0 -0.71,0 -0.71,0 -0.71,0 -0.71,0 -0.71,0 -0.71,0 -0.71,0 -0.71,0 -0.7,0 -0.71,0 -0.71,0 -0.71,0 -0.71,0 -0.71,0 -0.71,0 -0.71,0 -0.71,0 -0.71,0 -0.71,0 -0.71,0 -0.71,0 -0.7,0 -0.71,0 -0.71,0 -0.71,0 -0.71,0 -0.71,0 -0.71,0 -0.71,0 -0.71,0 -0.71,0 -0.71,0 -0.71,0 -0.71,0 -0.7,0 -0.71,0 -0.71,0 -0.71,0 -0.71,0 -0.71,0 -0.71,0 -0.71,0 -0.71,0 -0.71,0 -0.71,0 -0.71,0 -0.71,0 -0.7,0 -0.71,0 -0.71,0 -0.71,0 -0.71,0 -0.71,0 -0.71,0 -0.71,0 -0.71,0 -0.71,0 -0.71,0 -0.71,0 -0.71,0 -0.7,0 -0.71,0 -0.71,0 -0.71,0 -0.71,0 -0.71,0 -0.71,0 -0.71,0 -0.71,0 -0.71,0 -0.71,0 -0.71,0 -0.71,0 -0.7,0 -0.71,0 -0.71,0 -0.71,0 -0.71,0 -0.71,0 -0.71,0 -0.71,0 -0.71,0 -0.71,0 -0.71,0 -0.71,0 -0.71,0 -0.71,0 -0.7,0 -0.71,0 -0.71,0 -0.71,0 -0.71,0 -0.71,0 -0.71,0 -0.71,0 -0.71,0 -0.71,0 -0.71,0 -0.71,0 -0.71,0 -0.7,0 -0.71,0 -0.71,0 -0.71,0 -0.71,0 -0.71,0 -0.71,0 -0.71,0 -0.71,0 -0.71,0 -0.71,0 -0.71,0 -0.71,0 -0.7,0 -0.71,0 -0.71,0 -0.71,0 -0.71,0 -0.71,0 -0.71,0 -0.71,0 -0.71,0 -0.71,0 -0.71,0 -0.71,0 -0.71,0 -0.7,0 -0.71,0 -0.71,0 -0.71,0 -0.71,0 -0.71,0 -0.71,0 -0.71,0 -0.71,0 -0.71,0 -0.71,0 -0.71,0 -0.71,0 -0.7,0 -0.71,0 -0.71,0 -0.71,0 -0.71,0 -0.71,0 -0.71,0 -0.71,0 -0.71,0 -0.71,0 -0.71,0 -0.71,0 -0.71,0 -0.7,0 -0.71,0 -0.71,0 -0.71,0 -0.71,0 -0.71,0 -0.71,0 -0.71,0 -0.71,0 -0.71,0 -0.71,0 -0.71,0 -0.71,0 -0.71,0 -0.7,0 -0.71,0 -0.71,0 -0.71,0 -0.71,0 -0.71,0 -0.71,0 -0.71,0 -0.71,0 -0.71,0 -0.71,0 -0.71,0 -0.71,0 -0.7,0 -0.71,0 -0.71,0 z"
           style="fill:#619cff;fill-opacity:0.2;fill-rule:nonzero;stroke:#000000;stroke-opacity:1;stroke-width:2.13;stroke-linecap:round;stroke-linejoin:round;stroke-miterlimit:10;stroke-dasharray:none"
           id="path3122" /></g></g><g
       id="g3124" /><g
       id="g3126"><path
         d="m 90.94,58.82 398.66,0"
         style="fill:none;stroke:#000000;stroke-opacity:1;stroke-width:2.13;stroke-linecap:round;stroke-linejoin:round;stroke-miterlimit:10;stroke-dasharray:none"
         id="path3128" /><text
         transform="matrix(1,0,0,-1,107.98,37.4)"
         id="text3130"><tspan
           style="fill:#000000;fill-opacity:1;fill-rule:nonzero;stroke:none;font-family:Helvetica;font-variant:normal;font-weight:normal;font-size:18;writing-mode:lr;-inkscape-font-specification:Helvetica"
           x="0 10.008 20.016"
           y="0"
           sodipodi:role="line"
           id="tspan3132">100</tspan></text>
<text
         transform="matrix(1,0,0,-1,163.74,37.4)"
         id="text3134"><tspan
           style="fill:#000000;fill-opacity:1;fill-rule:nonzero;stroke:none;font-family:Helvetica;font-variant:normal;font-weight:normal;font-size:18;writing-mode:lr;-inkscape-font-specification:Helvetica"
           x="0 10.008 20.016"
           y="0"
           sodipodi:role="line"
           id="tspan3136">300</tspan></text>
<text
         transform="matrix(1,0,0,-1,219.5,37.4)"
         id="text3138"><tspan
           style="fill:#000000;fill-opacity:1;fill-rule:nonzero;stroke:none;font-family:Helvetica;font-variant:normal;font-weight:normal;font-size:18;writing-mode:lr;-inkscape-font-specification:Helvetica"
           x="0 10.008 20.016"
           y="0"
           sodipodi:role="line"
           id="tspan3140">500</tspan></text>
<text
         transform="matrix(1,0,0,-1,275.26,37.4)"
         id="text3142"><tspan
           style="fill:#000000;fill-opacity:1;fill-rule:nonzero;stroke:none;font-family:Helvetica;font-variant:normal;font-weight:normal;font-size:18;writing-mode:lr;-inkscape-font-specification:Helvetica"
           x="0 10.008 20.016"
           y="0"
           sodipodi:role="line"
           id="tspan3144">700</tspan></text>
<text
         transform="matrix(1,0,0,-1,331.01,37.4)"
         id="text3146"><tspan
           style="fill:#000000;fill-opacity:1;fill-rule:nonzero;stroke:none;font-family:Helvetica;font-variant:normal;font-weight:normal;font-size:18;writing-mode:lr;-inkscape-font-specification:Helvetica"
           x="0 10.008 20.016"
           y="0"
           sodipodi:role="line"
           id="tspan3148">900</tspan></text>
<text
         transform="matrix(1,0,0,-1,381.77,37.4)"
         id="text3150"><tspan
           style="fill:#000000;fill-opacity:1;fill-rule:nonzero;stroke:none;font-family:Helvetica;font-variant:normal;font-weight:normal;font-size:18;writing-mode:lr;-inkscape-font-specification:Helvetica"
           x="0 10.008 20.016 30.024"
           y="0"
           sodipodi:role="line"
           id="tspan3152">1100</tspan></text>
<text
         transform="matrix(1,0,0,-1,437.52,37.4)"
         id="text3154"><tspan
           style="fill:#000000;fill-opacity:1;fill-rule:nonzero;stroke:none;font-family:Helvetica;font-variant:normal;font-weight:normal;font-size:18;writing-mode:lr;-inkscape-font-specification:Helvetica"
           x="0 10.008 20.016 30.024"
           y="0"
           sodipodi:role="line"
           id="tspan3156">1300</tspan></text>
</g><g
       id="g3158"><path
         d="m 123,54.57 0,4.25"
         style="fill:none;stroke:#000000;stroke-opacity:1;stroke-width:2.13;stroke-linecap:round;stroke-linejoin:round;stroke-miterlimit:10;stroke-dasharray:none"
         id="path3160" /><path
         d="m 178.75,54.57 0,4.25"
         style="fill:none;stroke:#000000;stroke-opacity:1;stroke-width:2.13;stroke-linecap:round;stroke-linejoin:round;stroke-miterlimit:10;stroke-dasharray:none"
         id="path3162" /><path
         d="m 234.51,54.57 0,4.25"
         style="fill:none;stroke:#000000;stroke-opacity:1;stroke-width:2.13;stroke-linecap:round;stroke-linejoin:round;stroke-miterlimit:10;stroke-dasharray:none"
         id="path3164" /><path
         d="m 290.27,54.57 0,4.25"
         style="fill:none;stroke:#000000;stroke-opacity:1;stroke-width:2.13;stroke-linecap:round;stroke-linejoin:round;stroke-miterlimit:10;stroke-dasharray:none"
         id="path3166" /><path
         d="m 346.03,54.57 0,4.25"
         style="fill:none;stroke:#000000;stroke-opacity:1;stroke-width:2.13;stroke-linecap:round;stroke-linejoin:round;stroke-miterlimit:10;stroke-dasharray:none"
         id="path3168" /><path
         d="m 401.78,54.57 0,4.25"
         style="fill:none;stroke:#000000;stroke-opacity:1;stroke-width:2.13;stroke-linecap:round;stroke-linejoin:round;stroke-miterlimit:10;stroke-dasharray:none"
         id="path3170" /><path
         d="m 457.54,54.57 0,4.25"
         style="fill:none;stroke:#000000;stroke-opacity:1;stroke-width:2.13;stroke-linecap:round;stroke-linejoin:round;stroke-miterlimit:10;stroke-dasharray:none"
         id="path3172" /></g><g
       id="g3174" /><g
       id="g3176" /><g
       id="g3178" /><g
       id="g3180"><text
         transform="matrix(1,0,0,-1,152.72,12.96)"
         id="text3182"><tspan
           style="fill:#000000;fill-opacity:1;fill-rule:nonzero;stroke:none;font-family:Helvetica;font-variant:normal;font-weight:normal;font-size:22;writing-mode:lr;-inkscape-font-specification:Helvetica"
           x="0 6.116 18.348 24.464 36.696 44.682 56.914 69.146 74.03 86.262 92.378 104.61 116.842 122.958 141.284 153.516 164.516 170.632 183.414 195.646 202.972 213.972 226.204 232.32 239.646 251.878 267.762"
           y="0"
           sodipodi:role="line"
           id="tspan3184">Interpolated Max Force (pN)</tspan></text>
</g><g
       id="g3186" /><g
       id="g3188"><text
         transform="matrix(0,1,1,0,26.04,165.54)"
         id="text3190"><tspan
           style="fill:#000000;fill-opacity:1;fill-rule:nonzero;stroke:none;font-family:Helvetica;font-variant:normal;font-weight:normal;font-size:22;writing-mode:lr;-inkscape-font-specification:Helvetica"
           x="0 15.884 28.116 40.348 51.348 56.232 62.348"
           y="0"
           sodipodi:role="line"
           id="tspan3192">Density</tspan></text>
</g><g
       id="g3194" /><g
       id="g3196" /><g
       id="g3198" /><text
       xml:space="preserve"
       style="font-size:28px;font-style:normal;font-weight:normal;line-height:125%;letter-spacing:0px;word-spacing:0px;fill:#000000;fill-opacity:1;stroke:none;font-family:Sans;opacity:1"
       x="466.24854"
       y="45.070881"
       id="text3200"
       sodipodi:linespacing="125%"
       transform="matrix(0.8,0,0,-0.8,0,360)"><tspan
         sodipodi:role="line"
         id="tspan3202"
         x="466.24854"
         y="45.070881" /></text>
<text
       xml:space="preserve"
       style="font-size:28px;font-style:normal;font-weight:normal;line-height:125%;letter-spacing:0px;word-spacing:0px;fill:#000000;fill-opacity:1;stroke:none;font-family:Sans"
       x="465.14368"
       y="43.966026"
       id="text3204"
       sodipodi:linespacing="125%"
       transform="matrix(0.8,0,0,-0.8,0,360)"><tspan
         sodipodi:role="line"
         id="tspan3206"
         x="465.14368"
         y="43.966026" /></text>
<text
       xml:space="preserve"
       style="font-size:40px;font-style:normal;font-weight:normal;line-height:125%;letter-spacing:0px;word-spacing:0px;fill:#000000;fill-opacity:1;stroke:none;font-family:Sans"
       x="464.03882"
       y="26.840786"
       id="text3208"
       sodipodi:linespacing="125%"
       transform="matrix(0.8,0,0,-0.8,0,360)"><tspan
         sodipodi:role="line"
         id="tspan3210"
         x="464.03882"
         y="26.840786" /></text>
<text
       xml:space="preserve"
       style="font-size:32px;font-style:normal;font-weight:normal;line-height:125%;letter-spacing:0px;word-spacing:0px;fill:#000000;fill-opacity:1;stroke:none;font-family:Sans"
       x="368.57944"
       y="-342.94681"
       id="text3212"
       sodipodi:linespacing="125%"
       transform="scale(1,-1)"><tspan
         sodipodi:role="line"
         id="tspan3214"
         x="368.57944"
         y="-342.94681"
         style="font-size:14.39999962px">Y211D</tspan></text>
<text
       xml:space="preserve"
       style="font-size:32px;font-style:normal;font-weight:normal;line-height:125%;letter-spacing:0px;word-spacing:0px;fill:#000000;fill-opacity:1;stroke:none;font-family:Sans"
       x="283.72659"
       y="-345.59842"
       id="text3216"
       sodipodi:linespacing="125%"
       transform="scale(1,-1)"><tspan
         sodipodi:role="line"
         id="tspan3218"
         x="283.72659"
         y="-345.59842"
         style="font-size:14.39999962px">WT</tspan></text>
<text
       xml:space="preserve"
       style="font-size:32px;font-style:normal;font-weight:normal;line-height:125%;letter-spacing:0px;word-spacing:0px;fill:#000000;fill-opacity:1;stroke:none;font-family:Sans"
       x="135.67612"
       y="-312.45282"
       id="text3220"
       sodipodi:linespacing="125%"
       transform="scale(1,-1)"><tspan
         sodipodi:role="line"
         id="tspan3222"
         x="135.67612"
         y="-312.45282"
         style="font-size:14.39999962px">N348W/Y211A</tspan></text>
<path
       style="fill:none;stroke:#000000;stroke-width:1.48373401000000005;stroke-linecap:butt;stroke-linejoin:miter;stroke-miterlimit:3;stroke-opacity:1;stroke-dasharray:none;marker-end:url(#Arrow2Mend)"
       d="m 240.01623,311.52706 28.20054,-21.57141"
       id="path3224"
       inkscape:connector-curvature="0" /><path
       style="fill:none;stroke:#000000;stroke-width:1.47083962000000001;stroke-linecap:butt;stroke-linejoin:miter;stroke-miterlimit:4;stroke-opacity:1;stroke-dasharray:none;marker-start:none;marker-end:url(#Arrow2Mend)"
       d="m 295.65902,339.41126 0.44195,-28.78006"
       id="path3994"
       inkscape:connector-curvature="0" /><path
       style="fill:none;stroke:#000000;stroke-width:1.39999998000000003;stroke-linecap:butt;stroke-linejoin:miter;stroke-miterlimit:4;stroke-opacity:1;stroke-dasharray:none;marker-end:url(#Arrow2Mend)"
       d="M 368.57941,341.17902 344.71456,320.8497"
       id="path3996"
       inkscape:connector-curvature="0" /></g></svg>